<svg width="760" height="146" viewBox="0 0 760 146" fill="none" xmlns="http://www.w3.org/2000/svg">
<path d="M30.1647 74.9722L45.9133 59.2304L46.2892 58.859L52.3421 64.9259L42.3207 74.9621C41.525 75.7654 40.5785 76.4031 39.5358 76.8387C38.493 77.2742 37.3746 77.4989 36.2448 77.4998C35.1149 77.5007 33.9961 77.2779 32.9526 76.8441C31.9092 76.4103 30.9617 75.7741 30.1647 74.9722ZM160.533 84.6069L118.874 126.332C119.398 124.198 119.66 122.007 119.656 119.809V119.749C119.639 117.768 120.013 115.803 120.756 113.967C121.499 112.131 122.596 110.46 123.985 109.05L154.145 78.8562C161.859 71.2119 166.273 60.8439 166.441 49.977C166.568 40.4402 163.341 31.1625 157.327 23.7675L126.015 55.1256L144.204 73.3413C143.408 74.1385 142.464 74.7709 141.424 75.2023C140.385 75.6338 139.271 75.8559 138.146 75.8559C137.02 75.8559 135.906 75.6338 134.867 75.2023C133.827 74.7709 132.883 74.1385 132.088 73.3413L92.0921 33.2868L98.1601 27.2199L119.972 49.0637L151.279 17.6856C143.415 11.3267 133.481 8.1028 123.388 8.63355C113.294 9.16431 103.753 13.4122 96.5967 20.5609L62.103 55.1055L56.045 49.0386L81.9504 23.0951L73.2518 14.3836C70.1193 11.2542 65.9628 9.36401 61.5485 9.06154C57.1342 8.75907 52.7594 10.0647 49.2304 12.7377C54.161 8.72323 67.8252 -0.645562 79.2296 8.24651L84.4458 13.4653L84.8466 13.8668L85.2374 14.2582L85.4278 14.4489L85.979 15.0009L86.3198 15.3421C86.7056 15.7285 87.0513 16.0697 87.3219 16.3457L87.5374 16.5615L88.0084 17.0332L90.5137 14.489C99.8026 5.21056 112.387 0 125.506 0C138.625 0 151.209 5.21056 160.498 14.489L163.395 17.6554C171.36 27.1538 175.484 39.2955 174.955 51.688C174.425 64.0804 169.28 75.8248 160.533 84.6069ZM109.815 59.2304L115.873 65.2973L74.2439 107.008C72.6371 108.616 70.4581 109.52 68.186 109.52C65.9139 109.52 63.7348 108.616 62.128 107.008L81.9404 87.1762L88.0034 81.0792L109.815 59.2304Z" fill="url(#paint0_linear_2_223)"/>
<path d="M88.0034 81.0792L81.9454 87.1511L71.0271 76.2167L41.2785 46.4242C36.3446 41.3607 33.5992 34.5557 33.636 27.4809C33.6729 20.4061 36.4891 13.6302 41.4756 8.61862C46.462 3.60702 53.2179 0.762561 60.2821 0.700441C67.3464 0.638321 74.1511 3.36352 79.2246 8.28665C67.8202 -0.605415 54.171 8.75836 49.2255 12.7779C48.5994 13.248 48.0067 13.761 47.4517 14.3134L47.3364 14.4238C43.9039 17.8656 41.9759 22.5311 41.9759 27.3956C41.9759 32.26 43.9039 36.9256 47.3364 40.3674L56.04 49.0788L62.098 55.1457L66.1917 59.2505L77.2153 70.2903L88.0034 81.0792Z" fill="url(#paint1_linear_2_223)"/>
<path d="M114.816 119.091C114.812 124.415 113.233 129.617 110.278 134.042C107.323 138.467 103.125 141.916 98.2135 143.952C93.3023 145.988 87.8986 146.521 82.6852 145.483C77.4718 144.445 72.6825 141.883 68.9226 138.12L14.4311 83.5631C5.1898 74.2857 0 61.7164 0 48.6121C0 35.5078 5.1898 22.9384 14.4311 13.661C19.8276 8.25655 30.4653 1.67782 41.3436 0.694275C34.504 5.23565 26.1962 12.537 20.1182 18.9802C4.67518 35.3593 4.585 61.5688 20.489 77.4963L74.9755 132.058C78.3764 135.481 82.9908 137.419 87.8125 137.449C92.6343 137.479 97.2723 135.599 100.716 132.219L100.776 132.163L100.881 132.058C102.582 130.355 103.932 128.333 104.853 126.108C105.773 123.883 106.247 121.498 106.247 119.089C106.247 116.68 105.773 114.295 104.853 112.069C103.932 109.844 102.582 107.822 100.881 106.119L92.0921 97.3177L98.1551 91.2509L106.939 100.048C109.444 102.542 111.431 105.51 112.783 108.779C114.135 112.048 114.826 115.553 114.816 119.091Z" fill="url(#paint2_linear_2_223)"/>
<path d="M115.873 65.2973L74.244 107.008C72.6371 108.616 70.4581 109.52 68.186 109.52C65.9139 109.52 63.7349 108.616 62.1281 107.008L81.9404 87.1762L88.0034 81.0792L109.82 59.2304L115.873 65.2973Z" fill="url(#paint3_linear_2_223)"/>
<path d="M151.285 17.704L119.971 49.0641L126.026 55.1282L157.34 23.7681L151.285 17.704Z" fill="url(#paint4_linear_2_223)"/>
<path d="M144.214 73.3463C142.607 74.9535 140.429 75.8563 138.158 75.8563C135.887 75.8563 133.709 74.9535 132.103 73.3463L92.1022 33.2868L98.1601 27.2199L126.03 55.1306L144.214 73.3463Z" fill="url(#paint5_linear_2_223)"/>
<path d="M88.0034 17.0532L81.9454 23.1151L73.2468 14.4037C70.1143 11.2742 65.9579 9.38405 61.5435 9.08158C57.1292 8.77911 52.7544 10.0847 49.2255 12.7578C54.156 8.74328 67.8202 -0.625503 79.2246 8.26657L84.4408 13.4854L84.8416 13.8868L85.2325 14.2782L85.4229 14.4689L85.9741 15.0209L86.3148 15.3621C86.7006 15.7485 87.0464 16.0898 87.3169 16.3658L87.5324 16.5815L88.0034 17.0532Z" fill="url(#paint6_linear_2_223)"/>
<path d="M98.3405 134.186C92.5882 138.556 78.0371 147.082 64.8589 134.065L14.4311 83.5631C5.1898 74.2857 0 61.7164 0 48.6121C0 35.5078 5.1898 22.9384 14.4311 13.661C19.8276 8.25655 30.4653 1.67782 41.3436 0.694275C34.504 5.23565 26.1962 12.537 20.1182 18.9802C4.67518 35.3593 4.585 61.5688 20.489 77.4963L74.9755 132.058C78.0051 135.096 82.0032 136.973 86.273 137.362C90.5428 137.751 94.8134 136.627 98.3405 134.186Z" fill="url(#paint7_linear_2_223)"/>
<path d="M215.37 81.0616C215.37 83.9916 218.94 86.0616 223.99 86.0616C228.76 86.0616 231.51 84.2216 231.51 81.6616C231.51 79.1016 228.76 78.2616 222.25 77.1616C219.214 76.6679 216.209 76.0001 213.25 75.1616C208.48 73.6016 204.44 70.1616 204.44 63.2316C204.44 55.2316 212.79 49.3916 223.44 49.3916C234.44 49.3916 242.15 54.9816 242.15 64.3916H230.77C230.77 61.8216 227.29 59.8916 223.25 59.8916C219.21 59.8916 216.38 61.6416 216.38 64.1116C216.38 66.3116 219.04 67.1116 225.18 68.1116C228.252 68.6012 231.287 69.3062 234.26 70.2216C239.12 71.6816 243.43 75.2216 243.43 81.8616C243.52 91.6716 235.54 96.6316 223.71 96.6316C213.08 96.6316 204 91.0316 204 81.0416L215.37 81.0616Z" fill="#1D0B46"/>
<path d="M296.62 71.9916C296.684 73.8925 296.56 75.7951 296.25 77.6716H262.25C263.35 82.1716 267.3 85.0116 272.71 85.0116C275.578 85.1479 278.392 84.198 280.59 82.3516L294.81 82.4416C292.942 86.6549 289.897 90.2387 286.04 92.7615C282.183 95.2844 277.679 96.6387 273.07 96.6616C260.14 96.9316 249.14 85.8416 249.41 73.0916C249.14 60.5216 259.96 49.0916 272.71 49.3416C284.33 49.3416 296.25 57.9616 296.62 71.9916ZM283.83 68.1416C282.92 66.0238 281.411 64.2179 279.489 62.9459C277.567 61.6739 275.315 60.9912 273.01 60.9816C270.69 60.9234 268.409 61.5789 266.474 62.8594C264.539 64.14 263.043 65.9838 262.19 68.1416H283.83Z" fill="#1D0B46"/>
<path d="M295.25 102.622C301.12 102.622 303.5 99.6816 303.5 92.3516V49.8916H315.42V92.3516C315.42 107.112 307.63 114.262 295.25 114.262V102.622ZM309.46 31.0016C310.867 31.0096 312.239 31.4346 313.404 32.2229C314.569 33.0111 315.474 34.1273 316.005 35.43C316.535 36.7328 316.667 38.1636 316.385 39.5415C316.102 40.9194 315.416 42.1824 314.415 43.1707C313.414 44.1591 312.143 44.8283 310.762 45.0938C309.38 45.3592 307.951 45.2089 306.655 44.662C305.359 44.115 304.255 43.1959 303.481 42.021C302.708 40.8461 302.3 39.4682 302.31 38.0616C302.302 37.1246 302.482 36.1954 302.839 35.3292C303.197 34.463 303.725 33.6774 304.391 33.019C305.058 32.3606 305.85 31.8428 306.721 31.4962C307.592 31.1497 308.523 30.9815 309.46 31.0016Z" fill="#1D0B46"/>
<path d="M364.03 50.0616V74.1816C364.03 89.1816 356.03 96.6516 343.85 96.6516C331.67 96.6516 323.68 89.1316 323.68 74.1816V50.0616H335.6V74.1816C335.6 81.6116 338.07 85.0016 343.85 85.0016C349.63 85.0016 352.1 81.6116 352.1 74.1816V50.0616H364.03Z" fill="#1D0B46"/>
<path d="M388.83 61.7216V74.2816C388.83 81.6216 391.21 84.5516 397.08 84.5516V96.2016C384.7 96.2016 376.91 89.0416 376.91 74.2816V61.7216H370.12V50.0616H376.83V31.8216H388.83V50.0616H397.08V61.7116L388.83 61.7216Z" fill="#1D0B46"/>
<path d="M425.75 49.3416C438.5 49.0616 449.59 60.2516 449.32 73.0016V95.9216H437.39V91.0616C436.02 94.0616 430.88 96.6616 425.75 96.6616C413 96.9316 401.81 85.7416 402.09 73.0016C401.83 60.2516 413 49.0616 425.75 49.3416ZM434.19 64.4716C433.121 63.3365 431.825 62.4391 430.386 61.8378C428.948 61.2366 427.399 60.9448 425.84 60.9816C424.269 60.9705 422.712 61.2746 421.26 61.8759C419.809 62.4772 418.493 63.3635 417.39 64.4823C416.287 65.6011 415.419 66.9297 414.839 68.3896C414.258 69.8495 413.977 71.4109 414.01 72.9816C413.963 74.5729 414.24 76.1572 414.822 77.6388C415.405 79.1203 416.282 80.4684 417.4 81.6016C418.491 82.7285 419.802 83.6176 421.253 84.213C422.704 84.8085 424.262 85.0974 425.83 85.0616C427.382 85.1181 428.929 84.8452 430.368 84.2609C431.807 83.6766 433.106 82.7942 434.18 81.6716C436.379 79.3489 437.565 76.2487 437.48 73.0516C437.532 71.4743 437.267 69.9026 436.702 68.4291C436.137 66.9556 435.283 65.61 434.19 64.4716Z" fill="#1D0B46"/>
<path d="M527.27 95.9216H521.4V71.8016C521.4 60.7116 516.4 54.9316 508.19 54.9316C499.98 54.9316 494.9 60.7116 494.9 71.8016V95.9216H489.03V71.8016C489.03 60.7116 483.98 54.9316 475.82 54.9316C467.66 54.9316 462.52 60.7116 462.52 71.8016V95.9216H456.66V71.8016C456.66 56.8616 464.08 49.3416 475.82 49.3416C483.43 49.3416 489.49 53.0016 491.96 60.2516C494.44 53.0016 500.58 49.3416 508.19 49.3416C519.84 49.3416 527.27 56.8616 527.27 71.8016V95.9216Z" fill="#1D0B46"/>
<path d="M557.83 96.6616C545.08 96.9316 533.9 85.7416 534.17 73.0016C533.9 60.2516 545.08 49.0616 557.83 49.3416C570.58 49.0616 581.77 60.2516 581.49 73.0016C581.75 85.7416 570.56 96.9316 557.83 96.6616ZM557.92 91.0616C561.502 91.0993 565.015 90.0713 568.011 88.1084C571.008 86.1454 573.354 83.336 574.75 80.0371C576.147 76.7381 576.531 73.0985 575.855 69.5805C575.178 66.0626 573.472 62.8251 570.951 60.2793C568.431 57.7335 565.211 55.9944 561.7 55.2827C558.189 54.5711 554.545 54.9191 551.233 56.2825C547.92 57.646 545.087 59.9634 543.094 62.9403C541.101 65.9172 540.038 69.4192 540.04 73.0016C540.024 77.7617 541.894 82.3344 545.241 85.719C548.588 89.1036 553.14 91.0246 557.9 91.0616H557.92Z" fill="#1D0B46"/>
<path d="M658.96 95.9216H653.1V71.8016C653.1 60.7116 648.1 54.9316 639.89 54.9316C631.68 54.9316 626.59 60.7116 626.59 71.8016V95.9216H620.72V71.8016C620.72 60.7116 615.72 54.9316 607.52 54.9316C599.32 54.9316 594.22 60.7116 594.22 71.8016V95.9216H588.35V71.8016C588.35 56.8616 595.78 49.3416 607.52 49.3416C615.13 49.3416 621.18 53.0016 623.66 60.2516C626.13 53.0016 632.28 49.3416 639.89 49.3416C651.54 49.3416 658.96 56.8616 658.96 71.8016V95.9216Z" fill="#1D0B46"/>
<path d="M712.43 72.3516V73.1816C712.456 73.7332 712.426 74.2861 712.34 74.8316H671.99C672.159 79.2419 674.049 83.4105 677.255 86.4442C680.461 89.4779 684.727 91.1354 689.14 91.0616C691.85 91.0856 694.531 90.5057 696.989 89.3641C699.447 88.2225 701.62 86.5478 703.35 84.4616H710.51C708.331 88.171 705.222 91.2476 701.49 93.3872C697.758 95.5269 693.532 96.6555 689.23 96.6616C686.14 96.6617 683.081 96.0499 680.229 94.8615C677.377 93.673 674.788 91.9314 672.613 89.7373C670.437 87.5432 668.718 84.94 667.554 82.0778C666.389 79.2157 665.804 76.1513 665.83 73.0616C665.64 60.3116 676.19 49.0616 689.12 49.3116C692.165 49.2879 695.185 49.8656 698.006 51.0118C700.827 52.1579 703.394 53.8498 705.56 55.9905C707.726 58.1311 709.447 60.6784 710.626 63.486C711.805 66.2937 712.418 69.3065 712.43 72.3516ZM706.2 69.8816C705.56 65.7739 703.518 62.0143 700.42 59.2416C697.381 56.4221 693.375 54.8789 689.23 54.9316C685.021 54.8699 680.946 56.4106 677.83 59.2416C674.691 61.9942 672.615 65.7584 671.96 69.8816H706.2Z" fill="#1D0B46"/>
<path d="M759.66 95.9216H753.83V71.8016C753.83 60.7116 748.33 54.9316 739.53 54.9316C730.73 54.9316 725.22 60.7116 725.22 71.8016V95.9216H719.35V71.8016C719.35 56.8616 727.35 49.3416 739.53 49.3416C751.71 49.3416 759.7 56.8616 759.7 71.8016L759.66 95.9216Z" fill="#1D0B46"/>
<defs>
<linearGradient id="paint0_linear_2_223" x1="149.765" y1="3.73524" x2="54.2561" y2="99.1041" gradientUnits="userSpaceOnUse">
<stop stop-color="#F9AA21"/>
<stop offset="1" stop-color="#EC4F35"/>
</linearGradient>
<linearGradient id="paint1_linear_2_223" x1="33.4116" y1="43.8048" x2="87.9984" y2="43.8048" gradientUnits="userSpaceOnUse">
<stop stop-color="#0046E1"/>
<stop offset="1" stop-color="#5EE3FF"/>
</linearGradient>
<linearGradient id="paint2_linear_2_223" x1="0.00018121" y1="73.3563" x2="114.816" y2="73.3563" gradientUnits="userSpaceOnUse">
<stop stop-color="#5EE3FF"/>
<stop offset="1" stop-color="#0046E1"/>
</linearGradient>
<linearGradient id="paint3_linear_2_223" x1="62.1281" y1="84.3661" x2="115.873" y2="84.3661" gradientUnits="userSpaceOnUse">
<stop stop-color="#F9AA21"/>
<stop offset="1" stop-color="#EC4F35"/>
</linearGradient>
<linearGradient id="paint4_linear_2_223" x1="119.97" y1="36.417" x2="157.335" y2="36.417" gradientUnits="userSpaceOnUse">
<stop stop-color="#EC4F35"/>
<stop offset="1" stop-color="#F9AA21"/>
</linearGradient>
<linearGradient id="paint5_linear_2_223" x1="92.1022" y1="51.5376" x2="144.214" y2="51.5376" gradientUnits="userSpaceOnUse">
<stop stop-color="#0046E1"/>
<stop offset="1" stop-color="#5EE3FF"/>
</linearGradient>
<linearGradient id="paint6_linear_2_223" x1="49.2305" y1="13.8367" x2="88.0084" y2="13.8367" gradientUnits="userSpaceOnUse">
<stop stop-color="#0046E1"/>
<stop offset="1" stop-color="#5EE3FF"/>
</linearGradient>
<linearGradient id="paint7_linear_2_223" x1="0.00018121" y1="70.8423" x2="98.3405" y2="70.8423" gradientUnits="userSpaceOnUse">
<stop stop-color="#0046E1"/>
<stop offset="1" stop-color="#5EE3FF"/>
</linearGradient>
</defs>
</svg>
